Coordinates
version=1
nRows=27
nColumns=13
inDegrees=yes

Units are S.I. units (second, meters, Newtons, ...)
If the header above contains a line with 'inDegrees', this indicates whether rotational values are in degrees (yes) or radians (no).

endheader
time	pelvis_tilt	pelvis_tx	pelvis_ty	hip_flexion_l	hip_flexion_r	knee_angle_l	knee_angle_r	ankle_angle_l	ankle_angle_r	lumbar	Treadmill_tx	Compensate_tx
     45.00000000	    -12.40307763	      1.32493973	      0.99841043	     30.63167670	     -8.73850017	     -7.36401296	    -12.71176691	     -0.16099458	    -25.47986783	      9.89479522	   -120.15000000	    120.15000000
     45.01000000	    -11.91891362	      1.32618633	      0.99819597	     29.24358061	     -8.91761301	     -4.94781546	    -15.21767366	     -0.86170559	    -25.64345614	      9.45214951	   -120.17670000	    120.17670000
     45.02000000	    -11.67465214	      1.32691157	      0.99684351	     28.35160102	     -8.35008203	     -3.72022988	    -18.45017597	     -0.82279304	    -24.94059408	      9.24646519	   -120.20340000	    120.20340000
     45.03000000	    -11.38433002	      1.32708205	      0.99482730	     27.59499951	     -7.39370382	     -3.49517314	    -22.21857741	     -0.87697855	    -23.85787256	      8.90545852	   -120.23010000	    120.23010000
     45.04000000	    -11.02819860	      1.32673478	      0.99216855	     26.91951283	     -6.11549421	     -4.13422665	    -26.39399223	     -0.97555824	    -22.49952632	      8.41095800	   -120.25680000	    120.25680000
     45.05000000	    -10.57626882	      1.32583551	      0.98889228	     26.35345947	     -4.60075652	     -5.67124110	    -30.85716483	     -1.08196590	    -21.10239153	      7.73491830	   -120.28350000	    120.28350000
     45.06000000	    -10.04636645	      1.32443111	      0.98501777	     25.83539150	     -2.87368310	     -7.82844671	    -35.48783236	     -1.05822189	    -19.55021208	      6.89491682	   -120.31020000	    120.31020000
     45.07000000	     -9.48639313	      1.32254004	      0.98057384	     25.42746425	     -0.92858557	    -10.53732895	    -40.17994492	     -0.72271067	    -17.92159172	      5.95910987	   -120.33690000	    120.33690000
     45.08000000	     -8.88376426	      1.32014944	      0.97572050	     25.08229805	      1.18941517	    -13.65497824	    -44.83489161	      0.09048295	    -16.26491048	      4.90373348	   -120.36360000	    120.36360000
     45.09000000	     -8.24001118	      1.31734102	      0.97067192	     24.75466046	      3.41717483	    -17.06443640	    -49.30247729	      1.49343077	    -14.57460700	      3.74463893	   -120.39030000	    120.39030000
     45.10000000	     -7.62052804	      1.31417159	      0.96561375	     24.40956159	      5.81953629	    -20.53592841	    -53.53107415	      3.36959179	    -12.93458700	      2.56104510	   -120.41700000	    120.41700000
     45.11000000	     -7.15175399	      1.31078547	      0.96066337	     24.07913272	      8.45316458	    -23.86866539	    -57.35663888	      5.62808719	    -11.25538022	      1.52614818	   -120.44370000	    120.44370000
     45.12000000	     -6.67850754	      1.30741416	      0.95642015	     23.41539471	     11.07792527	    -26.70840461	    -60.63193175	      8.05224869	     -9.70508479	      0.48162455	   -120.47040000	    120.47040000
     45.13000000	     -6.40057867	      1.30420461	      0.95290352	     22.55155052	     13.86370212	    -28.88303365	    -63.27617481	     10.36973659	     -8.28525929	     -0.30603582	   -120.49710000	    120.49710000
     45.14000000	     -6.38902791	      1.30126115	      0.95026034	     21.49802169	     16.83013123	    -30.22253255	    -65.21762022	     12.36501024	     -7.00133808	     -0.73255143	   -120.52380000	    120.52380000
     45.15000000	     -6.47673354	      1.29880347	      0.94884864	     20.06072523	     19.70546088	    -30.72618487	    -66.34042342	     14.01304827	     -5.91632980	     -0.94724026	   -120.55050000	    120.55050000
     45.16000000	     -6.79330590	      1.29674702	      0.94849638	     18.43284403	     22.60558810	    -30.40900577	    -66.67336776	     15.08300032	     -4.95425092	     -0.83977021	   -120.57720000	    120.57720000
     45.17000000	     -7.25851878	      1.29510568	      0.94923711	     16.59781152	     25.40168882	    -29.38419524	    -66.20609370	     15.48443952	     -4.17695029	     -0.47169108	   -120.60390000	    120.60390000
     45.18000000	     -7.65713511	      1.29391079	      0.95128526	     14.36000788	     27.80044273	    -27.69840065	    -64.89311162	     15.44841913	     -3.84133427	     -0.11946486	   -120.63060000	    120.63060000
     45.19000000	     -8.33669127	      1.29297895	      0.95384824	     12.24353644	     30.20383798	    -25.58356097	    -62.90294431	     14.21398833	     -3.06579065	      0.62940806	   -120.65730000	    120.65730000
     45.20000000	     -9.01137607	      1.29243068	      0.95719656	      9.96098430	     32.24461629	    -23.09047037	    -60.15886238	     12.51580334	     -2.71042245	      1.41966103	   -120.68400000	    120.68400000
     45.21000000	     -9.70379277	      1.29215752	      0.96107780	      7.63923581	     33.94781257	    -20.38607608	    -56.72589625	     10.07862554	     -2.50313144	      2.27019296	   -120.71070000	    120.71070000
     45.22000000	    -10.39962851	      1.29220028	      0.96525583	      5.34073110	     35.28578175	    -17.61742756	    -52.65879084	      7.06111101	     -2.45351177	      3.15608763	   -120.73740000	    120.73740000
     45.23000000	    -11.09639926	      1.29261926	      0.96955848	      3.11338443	     36.26051444	    -14.88829884	    -48.02080351	      3.56074363	     -2.55449561	      4.07929046	   -120.76410000	    120.76410000
     45.24000000	    -11.75700032	      1.29333637	      0.97379029	      1.02427966	     36.84201368	    -12.40337900	    -42.87954770	     -0.22615638	     -2.78771116	      4.98612372	   -120.79080000	    120.79080000
     45.25000000	    -12.34108582	      1.29442314	      0.97785099	     -0.94698319	     37.01226410	    -10.22154880	    -37.34523436	     -4.11316788	     -3.14336691	      5.82537386	   -120.81750000	    120.81750000
     45.26000000	    -12.85371297	      1.29589967	      0.98151693	     -2.76329509	     36.83434671	     -8.41126774	    -31.59574837	     -7.91044517	     -3.56870267	      6.62229662	   -120.84420000	    120.84420000
